# xmcd CD database file
# Copyright (C) 1993-1996 Ti Kan
#
# Track frame offsets:
#  150
#  14587
#  25845
#  36679
#  54045
#  69056
#  81211
#  94126
#  109153
#  120275
#
# Disc length: 1819 seconds
#
# Revision: 1
# Processed by: cddbd v1.5.2PL0 Copyright (c) Steve Scherf et al.
# Submitted via: Advanced CD Ripper Pro 2.0
#
DISCID=7507190a
DTITLE=Antonio Aguilar - Colección de Oro CD2/3
DYEAR=2003
DGENRE=Banda
TTITLE0=El Mero Día de San Juan
TTITLE1=Anillo Grabado
TTITLE2=Alma Rendida
TTITLE3=Te Amare Vida Mía
TTITLE4=Palomas Que Andan Volando
TTITLE5=Imposible Olvidarte
TTITLE6=Destino Cruel
TTITLE7=Prenda del Alma
TTITLE8=No Me Vengas A Llorar
TTITLE9=Cuatro Milpas
EXTD=
EXTT0=
EXTT1=
EXTT2=
EXTT3=
EXTT4=
EXTT5=
EXTT6=
EXTT7=
EXTT8=
EXTT9=
PLAYORDER=
